<svg id="Layer_1" data-name="Layer 1" xmlns="http://www.w3.org/2000/svg" viewBox="0 0 1360.16 381.75"><defs><style>.cls-1{fill:#ffca05;fill-rule:evenodd;}.cls-2{fill:#fff;}</style></defs><title>gigatron logo-01</title><path class="cls-1" d="M1307.49,88.51h54V293.78c-22.72-3.39-29.53-18.4-36.85-37.86l-17.17-45.66V88.51Zm-116.32,0h62.3l64,170.12c7.22,19.2,15.45,39.17,44.07,42.94v51.28h-62.3l-67.87-180.7c-8.06-21.48-21.37-29.73-40.22-31.52l.05-52.12Zm.31,264.34h54V231.77l-21.37-56.9c-6.21-16.53-15.5-24.53-32.65-26.46V352.85Zm-105.61,4.38a80.9,80.9,0,0,0,80.66-80.65V165.68A80.9,80.9,0,0,0,1085.87,85v51.85A27.25,27.25,0,0,1,1112.05,164V280.28a27.22,27.22,0,0,1-26.18,27.11v49.84Zm-8.66,0a80.89,80.89,0,0,1-80.66-80.65V165.68A80.89,80.89,0,0,1,1077.21,85v51.85A27.25,27.25,0,0,0,1051,164V280.28a27.22,27.22,0,0,0,26.18,27.11v49.84ZM945.45,248l38.12,104.88h-60l-32.86-90.44H898A85,85,0,0,0,945.45,248ZM900.17,88.51H870.44v51.85h23.88A29.8,29.8,0,0,1,924,170.08v3.45a29.81,29.81,0,0,1-29.72,29.73H870.44v51.83h29.73a79,79,0,0,0,78.71-78.71v-9.15a79,79,0,0,0-78.71-78.72Zm-92.32,0h55.64V352.85H807.85V88.51ZM680,147.09h55.65V352.85H680V147.09ZM791,88.51v51.26H624.74V88.51Zm-272.46,0h63L642.3,352.85H586.67l-38.81-168.8c-4.39-19.09-17.36-42.66-40.66-42.44l11.29-53.1Zm-14.61,60.84L457.1,352.85h55.64l7.52-32.67H573l-9.75-44.39h-32.8l15.29-66.51-5.4-23.49c-3.65-15.85-14.21-36.65-33.08-36.47l-3.39,0ZM370.17,85a80.89,80.89,0,0,1,80.63,79.6l-53.87,3.58V164a27.22,27.22,0,0,0-26.76-27.14V85Zm-.73,157.61h27.49v37.64a27.23,27.23,0,0,1-26.76,27.13v49.82a80.89,80.89,0,0,0,80.64-80.65v-79H369.44v45Zm-6.83,114.59A80.89,80.89,0,0,1,282,276.58V165.68A80.89,80.89,0,0,1,362.61,85v51.85A27.24,27.24,0,0,0,336.44,164V280.28a27.21,27.21,0,0,0,26.17,27.11v49.84ZM201.35,88.51H257V352.85H201.35V88.51ZM95.84,85a80.88,80.88,0,0,1,80.63,79.6l-53.87,3.58V164a27.22,27.22,0,0,0-26.76-27.14V85Zm-.73,157.61H122.6v37.64a27.23,27.23,0,0,1-26.76,27.13v49.82a80.9,80.9,0,0,0,80.65-80.65v-79H95.11v45ZM88.27,357.23A80.88,80.88,0,0,1,7.63,276.58V165.68A80.88,80.88,0,0,1,88.27,85v51.85A27.24,27.24,0,0,0,62.11,164V280.28a27.2,27.2,0,0,0,26.16,27.11v49.84Z" transform="translate(-5 -85.03)"/><polygon class="cls-2" points="25.19 363.42 25.7 366.03 25.98 366.03 26.49 363.56 37.83 312.86 51.77 312.86 32.79 380.77 18.98 380.77 0 312.86 13.95 312.86 25.19 363.42"/><path class="cls-2" d="M89.42,451.29H71.51l-3.64,14.5H54.49l19.12-67.91H87.42l19.08,67.91H93.11ZM74.22,440.7h12.5l-6.11-24h-.28Z" transform="translate(-5 -85.03)"/><path class="cls-2" d="M124.64,455.21h26.07V465.8h-41v-6.67l25.47-50.66H109.43V397.89h40.86v6.43Zm5.18-70.9,4.1-5.92h11.94v.79L134.29,391h-8.95l-11.57-11.89v-.7h11.94Z" transform="translate(-5 -85.03)"/><polygon class="cls-2" points="200.84 380.77 187.64 380.77 166.89 337.34 166.61 337.44 166.61 380.77 153.32 380.77 153.32 312.86 166.61 312.86 187.37 356.24 187.64 356.14 187.64 312.86 200.84 312.86 200.84 380.77"/><path class="cls-2" d="M262,441.4q0,11.94-6.49,18.66t-17.25,6.71q-10.78,0-17.22-6.71t-6.43-18.66v-19q0-11.89,6.43-18.68t17.17-6.79q10.72,0,17.26,6.79T262,422.37Zm-13.2-19.17q0-7.31-2.71-11a9.13,9.13,0,0,0-7.88-3.72c-3.48,0-6.1,1.23-7.84,3.7s-2.61,6.14-2.61,11v19.18q0,7.39,2.66,11.08a10.15,10.15,0,0,0,15.67,0q2.7-3.69,2.71-11.08Z" transform="translate(-5 -85.03)"/><path class="cls-2" d="M315.46,397.89h13.2v47.2q0,10-5.62,15.83a18.78,18.78,0,0,1-14.16,5.85q-9.24,0-14.62-5.22t-5.2-15.39l.14-.28h12.92q0,5.37,1.89,7.83a5.82,5.82,0,0,0,4.87,2.48q2.7,0,4.64-2.94t1.94-8.16Z" transform="translate(-5 -85.03)"/><polygon class="cls-2" points="369.97 350.96 347.17 350.96 347.17 370.18 373.99 370.18 373.99 380.77 333.87 380.77 333.87 312.86 373.89 312.86 373.89 323.44 347.17 323.44 347.17 340.37 369.97 340.37 369.97 350.96"/><path class="cls-2" d="M451.79,455.72a24.32,24.32,0,0,1-8.25,7.72q-5.51,3.33-14,3.34-10.9,0-17.51-6.39t-6.6-18.2v-20.7q0-11.72,6.36-18.15t16.86-6.44q11.3,0,16.94,5.53t5.87,15.82l-.09.27H439c-.1-3.83-.94-6.63-2.55-8.38s-4-2.65-7.34-2.65a9.2,9.2,0,0,0-7.6,3.44q-2.76,3.42-2.76,10.43v20.82q0,7.14,2.78,10.57c1.85,2.3,4.55,3.44,8.09,3.44a12.39,12.39,0,0,0,5.86-1.07,8.39,8.39,0,0,0,3.1-3.18V439.77h-9v-9.33h22.2Z" transform="translate(-5 -85.03)"/><path class="cls-2" d="M461.82,465.79V397.88h20.53a21.77,21.77,0,0,1,17.25,7.91q6.82,7.9,6.81,20.36v11.43q0,12.45-6.81,20.33a21.78,21.78,0,0,1-17.25,7.88Zm13.3-57.32v46.74h6.48a9.54,9.54,0,0,0,8.56-4.83q3-4.85,3-12.82V426q0-7.93-3-12.75a9.54,9.54,0,0,0-8.56-4.81Z" transform="translate(-5 -85.03)"/><polygon class="cls-2" points="546.61 350.96 523.8 350.96 523.8 370.18 550.62 370.18 550.62 380.77 510.51 380.77 510.51 312.86 550.53 312.86 550.53 323.44 523.8 323.44 523.8 340.37 546.61 340.37 546.61 350.96"/><polygon class="cls-2" points="597.55 352.55 591.76 352.55 591.76 380.77 578.47 380.77 578.47 312.86 591.76 312.86 591.76 340.47 596.05 340.47 609.3 312.86 625.58 312.86 607.06 343.88 627.12 380.77 610.98 380.77 597.55 352.55"/><path class="cls-2" d="M681.84,397.89v46.22q0,10.86-6.37,16.77t-16.67,5.89q-10.32,0-16.68-5.92t-6.36-16.74V397.89H649v46.22q0,6.19,2.57,9.14a9.08,9.08,0,0,0,7.23,2.94q4.8,0,7.32-2.8t2.52-9.28V397.89Z" transform="translate(-5 -85.03)"/><path class="cls-2" d="M704.65,441.4v24.4h-13.3V397.89H715q10.18,0,16,6t5.88,15.75q0,9.8-5.9,15.78c-3.94,4-9.27,6-16,6Zm0-10.58H715a7.47,7.47,0,0,0,6.49-3.14,13.34,13.34,0,0,0,2.24-7.95,13.83,13.83,0,0,0-2.22-8.06,7.41,7.41,0,0,0-6.51-3.2h-10.3Z" transform="translate(-5 -85.03)"/><path class="cls-2" d="M790.7,397.89v46.22q0,10.86-6.36,16.77t-16.68,5.89q-10.3,0-16.67-5.92t-6.37-16.74V397.89h13.25v46.22q0,6.19,2.57,9.14a9,9,0,0,0,7.22,2.94c3.2,0,5.65-.93,7.32-2.8s2.52-5,2.52-9.28V397.89Z" transform="translate(-5 -85.03)"/><path class="cls-2" d="M824.14,397.89h13.21v47.2q0,10-5.62,15.83a18.78,18.78,0,0,1-14.16,5.85q-9.23,0-14.62-5.22t-5.2-15.39l.14-.28h12.92q0,5.37,1.89,7.83a5.84,5.84,0,0,0,4.87,2.48q2.7,0,4.64-2.94t1.93-8.16Z" transform="translate(-5 -85.03)"/><polygon class="cls-2" points="878.66 350.96 855.85 350.96 855.85 370.18 882.67 370.18 882.67 380.77 842.56 380.77 842.56 312.86 882.58 312.86 882.58 323.44 855.85 323.44 855.85 340.37 878.66 340.37 878.66 350.96"/><polygon class="cls-2" points="930.48 323.44 915.19 323.44 915.19 380.77 901.94 380.77 901.94 323.44 886.74 323.44 886.74 312.86 930.48 312.86 930.48 323.44"/><polygon class="cls-2" points="972.97 350.96 950.17 350.96 950.17 370.18 976.99 370.18 976.99 380.77 936.87 380.77 936.87 312.86 976.89 312.86 976.89 323.44 950.17 323.44 950.17 340.37 972.97 340.37 972.97 350.96"/><polygon class="cls-2" points="1044.81 323.44 1029.51 323.44 1029.51 380.77 1016.26 380.77 1016.26 323.44 1001.06 323.44 1001.06 312.86 1044.81 312.86 1044.81 323.44"/><polygon class="cls-2" points="1087.3 350.96 1064.49 350.96 1064.49 370.18 1091.31 370.18 1091.31 380.77 1051.19 380.77 1051.19 312.86 1091.22 312.86 1091.22 323.44 1064.49 323.44 1064.49 340.37 1087.3 340.37 1087.3 350.96"/><polygon class="cls-2" points="1145.84 380.77 1132.59 380.77 1132.59 352.64 1111.51 352.64 1111.51 380.77 1098.21 380.77 1098.21 312.86 1111.51 312.86 1111.51 342.06 1132.59 342.06 1132.59 312.86 1145.84 312.86 1145.84 380.77"/><polygon class="cls-2" points="1203.63 380.77 1190.42 380.77 1169.67 337.34 1169.39 337.44 1169.39 380.77 1156.1 380.77 1156.1 312.86 1169.39 312.86 1190.15 356.24 1190.42 356.14 1190.42 312.86 1203.63 312.86 1203.63 380.77"/><rect class="cls-2" x="1214.68" y="312.86" width="13.2" height="67.91"/><polygon class="cls-2" points="1257.96 352.55 1252.18 352.55 1252.18 380.77 1238.89 380.77 1238.89 312.86 1252.18 312.86 1252.18 340.47 1256.48 340.47 1269.72 312.86 1286 312.86 1267.48 343.88 1287.54 380.77 1271.4 380.77 1257.96 352.55"/><path class="cls-2" d="M1342.26,397.89v46.22q0,10.86-6.37,16.77t-16.67,5.89q-10.32,0-16.68-5.92t-6.36-16.74V397.89h13.24v46.22q0,6.19,2.57,9.14a9.08,9.08,0,0,0,7.23,2.94q4.8,0,7.32-2.8t2.52-9.28V397.89Z" transform="translate(-5 -85.03)"/><path class="cls-2" d="M1365.16,442.2h-13.29V397.89h13.29Zm-.09,23.6H1352v-12h13.06Z" transform="translate(-5 -85.03)"/></svg>